
        <svg xmlns="http://www.w3.org/2000/svg" xmlns:xlink="http://www.w3.org/1999/xlink" version="1.1" width="3168.5393258426966" height="1036.2185174940269" viewBox="0 0 3168.5393258426966 1036.2185174940269">
			
			<g transform="scale(8.426966292134832) translate(10, 10)">
				<defs id="SvgjsDefs2386"><linearGradient id="SvgjsLinearGradient2393"><stop id="SvgjsStop2394" stop-color="#616161" offset="0"/><stop id="SvgjsStop2395" stop-color="#e6e7e8" offset="0.5"/><stop id="SvgjsStop2396" stop-color="#616161" offset="1"/></linearGradient></defs><g id="SvgjsG2387" featureKey="symbolFeature-0" transform="matrix(1.2128777577233372,0,0,1.2128777577233372,-11.060210823012955,-6.336492100498811)" fill="#fff"><g xmlns="http://www.w3.org/2000/svg"><g><ellipse transform="matrix(0.9998 -0.0178 0.0178 0.9998 -0.2733 0.18)" cx="9.985" cy="15.456" rx="0.742" ry="0.742"/><ellipse transform="matrix(0.9998 -0.0177 0.0177 0.9998 -0.3405 0.329)" cx="18.403" cy="19.388" rx="0.371" ry="0.371"/><ellipse transform="matrix(0.9998 -0.0179 0.0179 0.9998 -0.1073 0.3622)" cx="20.209" cy="6.184" rx="0.371" ry="0.371"/><ellipse transform="matrix(0.9998 -0.0179 0.0179 0.9998 -0.267 0.7181)" cx="40.036" cy="15.292" rx="0.371" ry="0.371"/><ellipse transform="matrix(0.9998 -0.0179 0.0179 0.9998 -0.5869 1.13)" cx="62.993" cy="33.435" rx="0.371" ry="0.371"/><ellipse transform="matrix(0.9998 -0.0177 0.0177 0.9998 -0.4606 1.2352)" cx="69.55" cy="26.64" rx="0.371" ry="0.371"/><ellipse transform="matrix(0.9998 -0.018 0.018 0.9998 -0.478 0.6869)" cx="37.83" cy="26.834" rx="0.371" ry="0.371"/><ellipse transform="matrix(0.9998 -0.0173 0.0173 0.9998 -0.6856 0.2863)" cx="16.167" cy="39.681" rx="0.371" ry="0.371"/><ellipse transform="matrix(0.9998 -0.0179 0.0179 0.9998 -0.6781 0.3708)" cx="20.407" cy="38.122" rx="0.371" ry="0.371"/><ellipse transform="matrix(0.9998 -0.0177 0.0177 0.9998 -0.7623 0.3893)" cx="21.611" cy="43.263" rx="0.371" ry="0.371"/><ellipse transform="matrix(0.9998 -0.0179 0.0179 0.9998 -0.711 0.385)" cx="21.182" cy="39.963" rx="0.371" ry="0.371"/><ellipse transform="matrix(0.9998 -0.0177 0.0177 0.9998 -0.7512 0.3068)" cx="16.962" cy="42.603" rx="0.371" ry="0.371"/><ellipse transform="matrix(0.9998 -0.0177 0.0177 0.9998 -0.5133 0.481)" cx="26.928" cy="29.254" rx="0.371" ry="0.371"/><ellipse transform="matrix(0.9998 -0.0177 0.0177 0.9998 -0.5467 0.6055)" cx="33.917" cy="31.17" rx="0.371" ry="0.371"/><ellipse transform="matrix(0.9998 -0.0179 0.0179 0.9998 -0.6659 0.5761)" cx="31.899" cy="37.546" rx="0.371" ry="0.371"/><ellipse transform="matrix(0.9998 -0.018 0.018 0.9998 -0.5338 0.61)" cx="33.523" cy="29.879" rx="0.371" ry="0.371"/><ellipse transform="matrix(0.9998 -0.0179 0.0179 0.9998 -0.5243 0.7714)" cx="42.89" cy="29.712" rx="0.371" ry="0.371"/><ellipse transform="matrix(0.9998 -0.0177 0.0177 0.9998 -0.1891 0.9024)" cx="50.908" cy="11.142" rx="0.371" ry="0.371"/><ellipse transform="matrix(0.9998 -0.0177 0.0177 0.9998 -0.2383 0.9465)" cx="53.37" cy="13.942" rx="0.371" ry="0.371"/><ellipse transform="matrix(0.9998 -0.0182 0.0182 0.9998 -0.2667 0.9317)" cx="50.978" cy="15.097" rx="0.371" ry="0.371"/><ellipse transform="matrix(0.9998 -0.0175 0.0175 0.9998 -0.324 1.064)" cx="60.51" cy="19.009" rx="0.371" ry="0.371"/><ellipse transform="matrix(0.9998 -0.0177 0.0177 0.9998 -0.5712 1.2671)" cx="71.332" cy="32.916" rx="0.371" ry="0.371"/><ellipse transform="matrix(0.9998 -0.0178 0.0178 0.9998 -0.7844 0.6718)" cx="37.402" cy="44.466" rx="0.742" ry="0.742"/><ellipse transform="matrix(0.9998 -0.0178 0.0178 0.9998 -0.2586 1.2223)" cx="68.604" cy="15.154" rx="0.742" ry="0.742"/><ellipse transform="matrix(0.9998 -0.0178 0.0178 0.9998 -0.0948 1.3037)" cx="73.264" cy="5.981" rx="0.742" ry="0.742"/><ellipse transform="matrix(0.9998 -0.0177 0.0177 0.9998 -0.3617 0.9991)" cx="56.277" cy="20.94" rx="0.742" ry="0.742"/><g><ellipse transform="matrix(0.9998 -0.0178 0.0178 0.9998 -0.5083 0.3331)" cx="18.478" cy="28.748" rx="0.742" ry="0.742"/><ellipse transform="matrix(0.9998 -0.018 0.018 0.9998 -0.5853 0.4906)" cx="26.897" cy="32.68" rx="0.371" ry="0.371"/><ellipse transform="matrix(0.9998 -0.0179 0.0179 0.9998 -0.3435 0.5161)" cx="28.702" cy="19.476" rx="0.371" ry="0.371"/><ellipse transform="matrix(0.9998 -0.0179 0.0179 0.9998 -0.503 0.8717)" cx="48.53" cy="28.584" rx="0.371" ry="0.371"/><ellipse transform="matrix(0.9998 -0.0177 0.0177 0.9998 -0.8155 1.272)" cx="71.486" cy="46.727" rx="0.371" ry="0.371"/><ellipse transform="matrix(0.9998 -0.0175 0.0175 0.9998 -0.6874 1.373)" cx="78.044" cy="39.932" rx="0.371" ry="0.371"/><ellipse transform="matrix(0.9998 -0.0177 0.0177 0.9998 -0.7026 0.8258)" cx="46.323" cy="40.126" rx="0.371" ry="0.371"/><ellipse transform="matrix(0.9998 -0.0179 0.0179 0.9998 -0.9419 0.4488)" cx="24.661" cy="52.973" rx="0.371" ry="0.371"/><ellipse transform="matrix(0.9998 -0.0179 0.0179 0.9998 -0.9142 0.5247)" cx="28.9" cy="51.413" rx="0.371" ry="0.371"/><ellipse transform="matrix(0.9998 -0.0177 0.0177 0.9998 -0.9958 0.5415)" cx="30.105" cy="56.555" rx="0.371" ry="0.371"/><ellipse transform="matrix(0.9998 -0.0177 0.0177 0.9998 -0.9387 0.534)" cx="29.675" cy="53.255" rx="0.371" ry="0.371"/><ellipse transform="matrix(0.9998 -0.0179 0.0179 0.9998 -0.9947 0.4638)" cx="25.455" cy="55.895" rx="0.371" ry="0.371"/><ellipse transform="matrix(0.9998 -0.0179 0.0179 0.9998 -0.7545 0.6396)" cx="35.421" cy="42.546" rx="0.371" ry="0.371"/><ellipse transform="matrix(0.9998 -0.0177 0.0177 0.9998 -0.7802 0.7575)" cx="42.411" cy="44.462" rx="0.371" ry="0.371"/><ellipse transform="matrix(0.9998 -0.0179 0.0179 0.9998 -0.9014 0.7294)" cx="40.392" cy="50.838" rx="0.371" ry="0.371"/><ellipse transform="matrix(0.9998 -0.0177 0.0177 0.9998 -0.7572 0.7501)" cx="42.017" cy="43.171" rx="0.371" ry="0.371"/><ellipse transform="matrix(0.9998 -0.0174 0.0174 0.9998 -0.7388 0.8985)" cx="51.384" cy="43.004" rx="0.371" ry="0.371"/><ellipse transform="matrix(0.9998 -0.0177 0.0177 0.9998 -0.423 1.0549)" cx="59.401" cy="24.434" rx="0.371" ry="0.371"/><ellipse transform="matrix(0.9998 -0.0179 0.0179 0.9998 -0.4769 1.1101)" cx="61.863" cy="27.233" rx="0.371" ry="0.371"/><ellipse transform="matrix(0.9998 -0.0177 0.0177 0.9998 -0.493 1.0567)" cx="59.472" cy="28.389" rx="0.371" ry="0.371"/><ellipse transform="matrix(0.9998 -0.0177 0.0177 0.9998 -0.5607 1.2258)" cx="69.003" cy="32.301" rx="0.371" ry="0.371"/><ellipse transform="matrix(0.9998 -0.0179 0.0179 0.9998 -0.5914 1.5376)" cx="85.728" cy="33.858" rx="0.371" ry="0.371"/><ellipse transform="matrix(0.9998 -0.0181 0.0181 0.9998 -0.7113 1.5495)" cx="85.469" cy="40.17" rx="0.371" ry="0.371"/><ellipse transform="matrix(0.9998 -0.0179 0.0179 0.9998 -0.8131 1.4341)" cx="79.825" cy="46.208" rx="0.371" ry="0.371"/><ellipse transform="matrix(0.9998 -0.0173 0.0173 0.9998 -0.9878 1.5409)" cx="88.379" cy="57.743" rx="0.371" ry="0.371"/><ellipse transform="matrix(0.9998 -0.0179 0.0179 0.9998 -1.0249 0.8295)" cx="45.895" cy="57.758" rx="0.742" ry="0.742"/><ellipse transform="matrix(0.9998 -0.0177 0.0177 0.9998 -0.219 0.8693)" cx="48.991" cy="12.807" rx="0.742" ry="0.742"/><ellipse transform="matrix(0.9998 -0.0178 0.0178 0.9998 -0.4937 1.3757)" cx="77.097" cy="28.446" rx="0.742" ry="0.742"/><ellipse transform="matrix(0.9998 -0.0179 0.0179 0.9998 -0.3315 1.4646)" cx="81.757" cy="19.273" rx="0.742" ry="0.742"/><ellipse transform="matrix(0.9998 -0.0176 0.0176 0.9998 -0.5925 1.1454)" cx="64.771" cy="34.231" rx="0.742" ry="0.742"/><ellipse transform="matrix(0.9998 -0.0178 0.0178 0.9998 -0.8939 1.5899)" cx="89.003" cy="51.085" rx="0.742" ry="0.742"/></g></g><g><ellipse transform="matrix(0.9998 -0.0178 0.0178 0.9998 -1.4092 1.3135)" cx="73.152" cy="79.89" rx="0.742" ry="0.742"/><ellipse transform="matrix(0.9998 -0.0179 0.0179 0.9998 -1.3472 1.1691)" cx="64.734" cy="75.959" rx="0.371" ry="0.371"/><ellipse transform="matrix(0.9998 -0.0182 0.0182 0.9998 -1.6129 1.1605)" cx="62.928" cy="89.163" rx="0.371" ry="0.371"/><ellipse transform="matrix(0.9998 -0.0177 0.0177 0.9998 -1.4098 0.7752)" cx="43.101" cy="80.054" rx="0.371" ry="0.371"/><ellipse transform="matrix(0.9998 -0.0179 0.0179 0.9998 -1.1031 0.3698)" cx="20.144" cy="61.911" rx="0.371" ry="0.371"/><ellipse transform="matrix(0.9998 -0.0179 0.0179 0.9998 -1.226 0.2538)" cx="13.586" cy="68.707" rx="0.371" ry="0.371"/><ellipse transform="matrix(0.9998 -0.0181 0.0181 0.9998 -1.2295 0.8291)" cx="45.307" cy="68.513" rx="0.371" ry="0.371"/><ellipse transform="matrix(0.9998 -0.018 0.018 0.9998 -0.9935 1.2174)" cx="66.97" cy="55.665" rx="0.371" ry="0.371"/><ellipse transform="matrix(0.9998 -0.0179 0.0179 0.9998 -1.0129 1.1305)" cx="62.73" cy="57.225" rx="0.371" ry="0.371"/><ellipse transform="matrix(0.9998 -0.0175 0.0175 0.9998 -0.9029 1.0857)" cx="61.526" cy="52.084" rx="0.371" ry="0.371"/><ellipse transform="matrix(0.9998 -0.0175 0.0175 0.9998 -0.9606 1.0937)" cx="61.955" cy="55.384" rx="0.371" ry="0.371"/><ellipse transform="matrix(0.9998 -0.0179 0.0179 0.9998 -0.9321 1.1911)" cx="66.175" cy="52.743" rx="0.371" ry="0.371"/><ellipse transform="matrix(0.9998 -0.0179 0.0179 0.9998 -1.1724 1.0153)" cx="56.209" cy="66.092" rx="0.371" ry="0.371"/><ellipse transform="matrix(0.9998 -0.018 0.018 0.9998 -1.1492 0.898)" cx="49.22" cy="64.176" rx="0.371" ry="0.371"/><ellipse transform="matrix(0.9998 -0.0179 0.0179 0.9998 -1.025 0.9251)" cx="51.238" cy="57.801" rx="0.371" ry="0.371"/><ellipse transform="matrix(0.9998 -0.018 0.018 0.9998 -1.1723 0.9051)" cx="49.614" cy="65.468" rx="0.371" ry="0.371"/><ellipse transform="matrix(0.9998 -0.0179 0.0179 0.9998 -1.1666 0.7298)" cx="40.247" cy="65.635" rx="0.371" ry="0.371"/><ellipse transform="matrix(0.9998 -0.0177 0.0177 0.9998 -1.4849 0.5835)" cx="32.229" cy="84.205" rx="0.371" ry="0.371"/><ellipse transform="matrix(0.9998 -0.0177 0.0177 0.9998 -1.4355 0.5394)" cx="29.767" cy="81.405" rx="0.371" ry="0.371"/><ellipse transform="matrix(0.9998 -0.0179 0.0179 0.9998 -1.4293 0.5877)" cx="32.158" cy="80.249" rx="0.371" ry="0.371"/><ellipse transform="matrix(0.9998 -0.0179 0.0179 0.9998 -1.3607 0.4166)" cx="22.627" cy="76.338" rx="0.371" ry="0.371"/><ellipse transform="matrix(0.9998 -0.0179 0.0179 0.9998 -1.1139 0.221)" cx="11.805" cy="62.431" rx="0.371" ry="0.371"/><ellipse transform="matrix(0.9998 -0.0179 0.0179 0.9998 -0.9019 0.8254)" cx="45.735" cy="50.881" rx="0.742" ry="0.742"/><ellipse transform="matrix(0.9998 -0.018 0.018 0.9998 -1.438 0.274)" cx="14.533" cy="80.192" rx="0.742" ry="0.742"/><ellipse transform="matrix(0.9998 -0.0178 0.0178 0.9998 -1.5877 0.1897)" cx="9.873" cy="89.366" rx="0.742" ry="0.742"/><ellipse transform="matrix(0.9998 -0.0178 0.0178 0.9998 -1.3189 0.4894)" cx="26.86" cy="74.407" rx="0.742" ry="0.742"/><g><ellipse transform="matrix(0.9998 -0.0178 0.0178 0.9998 -1.1961 1.6256)" cx="90.815" cy="68.074" rx="0.742" ry="0.742"/><ellipse transform="matrix(0.9998 -0.0177 0.0177 0.9998 -1.1219 1.4678)" cx="82.396" cy="64.143" rx="0.371" ry="0.371"/><ellipse transform="matrix(0.9998 -0.018 0.018 0.9998 -1.3827 1.467)" cx="80.591" cy="77.347" rx="0.371" ry="0.371"/><ellipse transform="matrix(0.9998 -0.018 0.018 0.9998 -1.2216 1.1077)" cx="60.764" cy="68.238" rx="0.371" ry="0.371"/><ellipse transform="matrix(0.9998 -0.0179 0.0179 0.9998 -0.8893 0.6837)" cx="37.807" cy="50.095" rx="0.371" ry="0.371"/><ellipse transform="matrix(0.9998 -0.0179 0.0179 0.9998 -1.0114 0.5674)" cx="31.249" cy="56.891" rx="0.371" ry="0.371"/><ellipse transform="matrix(0.9998 -0.0177 0.0177 0.9998 -0.9932 1.1229)" cx="62.97" cy="56.697" rx="0.371" ry="0.371"/><ellipse transform="matrix(0.9998 -0.0181 0.0181 0.9998 -0.7778 1.535)" cx="84.632" cy="43.849" rx="0.371" ry="0.371"/><ellipse transform="matrix(0.9998 -0.0178 0.0178 0.9998 -0.7977 1.4422)" cx="80.393" cy="45.409" rx="0.371" ry="0.371"/><ellipse transform="matrix(0.9998 -0.0179 0.0179 0.9998 -0.7062 1.42)" cx="79.188" cy="40.268" rx="0.371" ry="0.371"/><ellipse transform="matrix(0.9998 -0.0179 0.0179 0.9998 -0.7661 1.4302)" cx="79.618" cy="43.568" rx="0.371" ry="0.371"/><ellipse transform="matrix(0.9998 -0.0177 0.0177 0.9998 -0.711 1.4897)" cx="83.838" cy="40.927" rx="0.371" ry="0.371"/><ellipse transform="matrix(0.9998 -0.0177 0.0177 0.9998 -0.9486 1.3153)" cx="73.872" cy="54.276" rx="0.371" ry="0.371"/><ellipse transform="matrix(0.9998 -0.018 0.018 0.9998 -0.9339 1.2153)" cx="66.883" cy="52.36" rx="0.371" ry="0.371"/><ellipse transform="matrix(0.9998 -0.0179 0.0179 0.9998 -0.8107 1.2385)" cx="68.901" cy="45.985" rx="0.371" ry="0.371"/><ellipse transform="matrix(0.9998 -0.0179 0.0179 0.9998 -0.9483 1.2112)" cx="67.277" cy="53.652" rx="0.371" ry="0.371"/><ellipse transform="matrix(0.9998 -0.0177 0.0177 0.9998 -0.9434 1.0333)" cx="57.909" cy="53.819" rx="0.371" ry="0.371"/><ellipse transform="matrix(0.9998 -0.018 0.018 0.9998 -1.2978 0.9118)" cx="49.892" cy="72.389" rx="0.371" ry="0.371"/><ellipse transform="matrix(0.9998 -0.0179 0.0179 0.9998 -1.2361 0.8588)" cx="47.43" cy="69.589" rx="0.371" ry="0.371"/><ellipse transform="matrix(0.9998 -0.0179 0.0179 0.9998 -1.2139 0.9004)" cx="49.821" cy="68.433" rx="0.371" ry="0.371"/><ellipse transform="matrix(0.9998 -0.0177 0.0177 0.9998 -1.1354 0.723)" cx="40.29" cy="64.522" rx="0.371" ry="0.371"/><ellipse transform="matrix(0.9998 -0.018 0.018 0.9998 -1.1317 0.4352)" cx="23.565" cy="62.964" rx="0.371" ry="0.371"/><ellipse transform="matrix(0.9998 -0.0179 0.0179 0.9998 -1.0079 0.4345)" cx="23.824" cy="56.652" rx="0.371" ry="0.371"/><ellipse transform="matrix(0.9998 -0.0177 0.0177 0.9998 -0.8907 0.5292)" cx="29.468" cy="50.615" rx="0.371" ry="0.371"/><ellipse transform="matrix(0.9998 -0.0177 0.0177 0.9998 -0.6883 0.3762)" cx="20.914" cy="39.08" rx="0.371" ry="0.371"/><ellipse transform="matrix(0.9998 -0.0177 0.0177 0.9998 -0.6817 1.1285)" cx="63.398" cy="39.065" rx="0.742" ry="0.742"/><ellipse transform="matrix(0.9998 -0.0177 0.0177 0.9998 -1.4771 1.0801)" cx="60.302" cy="84.016" rx="0.742" ry="0.742"/><ellipse transform="matrix(0.9998 -0.0178 0.0178 0.9998 -1.2108 0.5833)" cx="32.196" cy="68.376" rx="0.742" ry="0.742"/><ellipse transform="matrix(0.9998 -0.0177 0.0177 0.9998 -1.3678 0.4993)" cx="27.536" cy="77.55" rx="0.742" ry="0.742"/><ellipse transform="matrix(0.9998 -0.0177 0.0177 0.9998 -1.1006 0.7976)" cx="44.523" cy="62.591" rx="0.742" ry="0.742"/><ellipse transform="matrix(0.9998 -0.0178 0.0178 0.9998 -0.8102 0.3681)" cx="20.29" cy="45.738" rx="0.742" ry="0.742"/></g></g></g></g><g id="SvgjsG2388" featureKey="textGroupContainer" transform="matrix(1,0,0,1,355,14)" fill="#fff"><rect xmlns="http://www.w3.org/2000/svg" y="0" height="1" width="1" opacity="0"/><rect xmlns="http://www.w3.org/2000/svg" y="0" x="-235" width="3" height="76"/></g><g id="SvgjsG2389" featureKey="vMvB0T-0" transform="matrix(2.5068939967432105,0,0,2.5068939967432105,135.54324263999624,19.813738198728423)" fill="#fff"><path d="M12 9.84 l-1.82 0 c-0.1 -2.22 -1.94 -2.92 -3.56 -2.92 c-1.22 0 -3.28 0.34 -3.28 2.52 c0 1.22 0.86 1.62 1.7 1.82 l4.1 0.94 c1.86 0.44 3.26 1.56 3.26 3.84 c0 3.4 -3.16 4.34 -5.62 4.34 c-2.66 0 -3.7 -0.8 -4.34 -1.38 c-1.22 -1.1 -1.46 -2.3 -1.46 -3.64 l1.82 0 c0 2.6 2.12 3.36 3.96 3.36 c1.4 0 3.76 -0.36 3.76 -2.42 c0 -1.5 -0.7 -1.98 -3.06 -2.54 l-2.94 -0.68 c-0.94 -0.22 -3.06 -0.88 -3.06 -3.38 c0 -2.24 1.46 -4.44 4.94 -4.44 c5.02 0 5.52 3 5.6 4.58 z M17 7.300000000000001 l0 4.98 l3.86 0 c1.74 0 2.92 -0.64 2.92 -2.58 c0 -1.82 -1.24 -2.4 -2.84 -2.4 l-3.94 0 z M17 13.940000000000001 l0 6.06 l-1.94 0 l0 -14.36 l6.46 0 c2.66 0 4.26 1.72 4.26 4.04 c0 2 -1.14 4.26 -4.26 4.26 l-4.52 0 z M36.22 15.82 l-5.76 0 l-1.5 4.18 l-2 0 l5.4 -14.36 l2.2 0 l5.2 14.36 l-2.12 0 z M31.06 14.1 l4.46 0 l-2.12 -6.32 l-0.04 0 z M53.5 9.96 l-1.88 0 c-0.54 -2.52 -2.64 -2.98 -4.02 -2.98 c-2.6 0 -4.7 1.92 -4.7 5.7 c0 3.38 1.2 5.98 4.76 5.98 c1.26 0 3.44 -0.6 4.1 -3.94 l1.88 0 c-0.8 5.42 -5.2 5.66 -6.28 5.66 c-3.26 0 -6.46 -2.12 -6.46 -7.64 c0 -4.42 2.52 -7.48 6.7 -7.48 c3.7 0 5.62 2.3 5.9 4.7 z M66.78 18.28 l0 1.72 l-10.6 0 l0 -14.36 l10.46 0 l0 1.72 l-8.52 0 l0 4.4 l7.86 0 l0 1.72 l-7.86 0 l0 4.8 l8.66 0 z M75.72 12.64 l5.04 7.36 l-2.4 0 l-3.86 -5.9 l-3.98 5.9 l-2.34 0 l5.14 -7.36 l-4.82 -7 l2.44 0 l3.64 5.5 l3.64 -5.5 l2.32 0 z"/></g>
			</g>
		</svg>
	